<?xml version="1.0" encoding="utf-8"?>
<!-- Generator: Adobe Illustrator 21.1.0, SVG Export Plug-In . SVG Version: 6.00 Build 0)  -->
<svg version="1.1" id="圖層_1" xmlns="http://www.w3.org/2000/svg" xmlns:xlink="http://www.w3.org/1999/xlink" x="0px" y="0px"
	 viewBox="0 0 226.8 62" style="enable-background:new 0 0 226.8 62;" xml:space="preserve">
<style type="text/css">
	.st0{fill:#231815;}
	.st1{fill:#F7B334;}
</style>
<g>
	<g>
		<g>
			<path class="st0" d="M221.4,25.4c1.5-0.8,2.7-1.8,3.7-3.1c1.1-1.5,1.7-3.3,1.7-5.4c0-2.9-0.7-4.3-1.2-5.2l-0.1-0.2
				c-0.5-0.9-1.2-1.7-2.1-2.4c-0.9-0.6-2.2-1-3.6-1h-5h-19h-0.6h-4.4h-0.6l-0.2,0.6l-4.3,11.7l-1-6.2l-0.1-0.4
				c-0.2-0.9-0.4-2.2-0.6-2.7c-0.3-1.1-0.9-2.1-1.5-2.5c-0.7-0.5-1.9-0.5-2.1-0.5h-5H172h-5c-0.2,0-0.7,0-0.7,0h-1.4h-3.6h-1.4
				h-21.4c0.6-0.7,1.2-1.3,1.8-2c1.4-1.6,2.7-3.2,3.7-4.8l0.9-1.4h-1.6h-3.4h-1.6h-33.9h0h-5h0l0,0c-2.7,0.2-5.9,1.9-8,4
				c-1.6,1.6-3.6,4.3-3.6,8.6c0,3.9,1.6,6.3,3.1,8.1c2.1,2.5,5.6,3.9,7.3,3.9h5h8.2c0.1,0,0.2,0,0.3,0.2c0.1,0.2,0.3,0.5,0.3,1.2
				c0,0.4-0.1,0.7-0.2,0.9c-0.2,0.4-0.4,0.4-0.6,0.4H92.5h-5c-0.5,0-0.8,0.2-1.9,1.5c-0.7,0.8-1.4,1.7-2.3,2.8c-0.8,1-1.5,2-2.3,3.1
				c-0.8,1.1-1.2,1.8-1.5,2.3l-0.6,1.3h1.4h3.6h1.4h30.2h5c1.4,0,2.8-0.4,4.1-1.3c1.3-0.8,2.4-1.8,3.3-3.1c0.9-1.2,1.7-2.5,2.3-4
				c0.6-1.5,0.9-2.9,0.9-4.2v-0.4c0-1.1-0.2-2.4-0.5-3.7c-0.3-1.3-0.8-2.6-1.6-3.7c-0.2-0.3-0.4-0.6-0.7-0.9h2.1h0.9h3.9l-7.3,20.1
				l-0.4,1.2h1.2h3.8h1.2h5.3h0.6h2.7h1.1h0.6h0.6h2.7h1.1h17.7h0.2h4.9h0.2l0.2-0.1c0,0,0,0,0,0l0,0.1h0.8h4.3h0.8h1.4h1.2h2h1h0.8
				h1.3h2h1h2.3h0.6h4.4h0.6l0.2-0.6l2-5.6l6,5.9l0.3,0.2h0.4h4.7h0.4h7.2h2.1h3h2.1l-1.5-1.5l-9.3-9.5c0.9-0.1,1.9-0.3,2.9-0.4
				C218.4,26.7,220,26.2,221.4,25.4z M209.3,17.2c0,0,0.1,0,0.1,0c0,0.1,0.1,0.3,0.1,0.5c0,0.4-0.1,0.8-0.3,1.1
				c-0.2,0.3-0.2,0.3-0.4,0.3h-3.6h-0.4h-1.4l0.7-1.8H209.3z M170,25.5l0.6,3.9H167L170,25.5z M153.3,17.2h4.9l-10.5,13.4l4.9-13.4
				H153.3z M128.8,11.6c-0.5,0.5-1.2,1.3-2.2,2.7c0,0-0.3,0.4-0.5,0.8c-1.2-0.7-2.6-1.1-4.2-1.1h-5h-8c-0.2,0-0.6-0.2-0.8-0.4
				c-0.2-0.2-0.4-0.4-0.4-0.9c0-0.4,0.1-0.7,0.3-1c0.2-0.2,0.4-0.4,0.6-0.4h20.6l-0.2,0.2C129,11.5,128.9,11.5,128.8,11.6z"/>
			<path class="st0" d="M83.1,14.1c-0.7-1.4-1.7-2.6-2.9-3.4c-1.2-0.8-2.7-1.5-4.4-1.9C74,8.4,72.1,8.2,70,8.2h-5h-3h-5
				c-2,0-4,0.5-6,1.4c-1.9,0.9-3.7,2.1-5.3,3.7c-0.2,0.2-0.5,0.5-0.7,0.7h-1.1h-1.2H31.1h-0.3h-4.8h-0.3l-0.2,0.2
				c-0.7,0.5-1.4,1.3-2.3,2.3c-0.8,0.9-1.5,1.8-2.3,2.9c-0.7,1-1.4,1.8-1.9,2.6c-0.1-0.7-0.2-1.4-0.2-2.1c0.1-2.5,0.7-3.4,1.6-4.8
				c1.2-1.9,3-3,3.4-3.2c0.6-0.4,1.6-0.7,2.2-0.7h12.9h0.3H44h0.3l0.2-0.2c1.6-1.4,3.2-2.9,4.5-4.5c1.3-1.5,2.7-3.2,4.1-5l1-1.3
				h-1.6h-3.4h-1.6H23.9h-5c-2.6,0-5,0.6-7.3,1.9c-2.2,1.3-4.3,2.9-6,4.9c-1.7,2-3.1,4.2-4.1,6.7C0.5,16,0,18.4,0,20.8
				c0,3.5,0.7,6.4,2.1,8.7c1.4,2.3,3.2,4.1,5.5,5.4c2.2,1.3,4.8,2.2,7.6,2.8c2.8,0.5,5.6,0.8,8.5,0.8h5H34h0.6h4.5h0.6l0.2-0.5
				l1.5-3.9c0.7,0.9,1.4,1.6,2.4,2.2c1.3,0.8,2.9,1.4,4.7,1.8c1.7,0.3,3.6,0.5,5.6,0.5h5h1.3h5c2.3,0,4.5-0.5,6.6-1.4
				c2.1-0.9,3.9-2.1,5.6-3.6c1.6-1.5,3-3.2,4.1-5.1c1.1-1.9,1.9-4,2.2-6.1c0.1-0.6,0.2-1.2,0.2-1.7c0-0.5,0.1-1,0.1-1.6
				C84.1,17.1,83.7,15.5,83.1,14.1z M23,24.5h0.8h2.6l-1.2,2.8c-1.3-0.2-3.4-0.7-4.9-2.6c-0.1-0.1-0.1-0.2-0.2-0.3H23z M56.7,26.2
				c-1-2.7,1.2-5.4,2.3-6.5c1.2-1.3,3.2-2.3,4.8-2.5c0.3,0,0.4,0,0.5,0.1l0.1,0c0.8,0.2,2.1,0.4,2.7,2.6c0.7,2.3-0.9,4.6-2,5.9
				c-0.9,1.1-2.8,3-5.3,3.3C58.9,28.8,57.5,28.4,56.7,26.2z"/>
		</g>
		<g>
			<path class="st1" d="M99.3,0.9c-2.4,0.2-5.5,1.7-7.5,3.8c-1.6,1.7-3.4,4.1-3.3,8c0,3.7,1.6,6,2.9,7.6c2,2.4,5.2,3.6,6.6,3.6h13.2
				c0.4,0,0.7,0.2,1,0.5c0.3,0.3,0.5,0.9,0.5,1.7c0,0.6-0.2,1.1-0.4,1.4c-0.2,0.4-0.6,0.8-1.3,0.8H87.5c-0.1,0-0.6,0.4-1.2,1.2
				c-0.7,0.8-1.4,1.7-2.3,2.8c-0.8,1-1.6,2.1-2.3,3.1c-0.7,1-1.2,1.8-1.4,2.2h35.3c1.2,0,2.5-0.4,3.6-1.1c1.2-0.8,2.2-1.7,3.1-2.9
				c0.9-1.1,1.6-2.4,2.2-3.8c0.6-1.4,0.8-2.6,0.8-3.8v-0.4c0-1.1-0.2-2.2-0.5-3.5c-0.3-1.3-0.8-2.4-1.4-3.5c-0.7-1.1-1.5-2-2.6-2.7
				c-1.1-0.7-2.4-1.1-3.9-1.1h-13.1c-0.4-0.1-1-0.3-1.3-0.7c-0.3-0.3-0.6-0.7-0.6-1.5c0-0.6,0.2-1.1,0.5-1.6
				c0.2-0.3,0.7-0.7,1.2-0.7H130c1.7-1.6,3.2-3.1,4.5-4.7c1.4-1.6,2.6-3.1,3.6-4.7H99.3z"/>
			<path class="st1" d="M132.8,9c-0.5,0.3-1.2,0.9-1.9,1.6c-0.4,0.4-0.9,1-1.3,1.4c-0.4,0.5-1.2,1.2-2.3,2.8
				c-0.5,0.7-0.9,1.3-0.9,1.5v0.1h10.2l-7.7,21.3h10.3l7.7-21.3h6.4c0.3,0,0.7-0.3,1.4-0.9c0.6-0.6,1.3-1.3,1.9-2
				c0.7-0.8,1.3-1.6,1.9-2.4c0.6-0.8,1-1.5,1.3-2H132.8z"/>
			<path class="st1" d="M178.7,14.5c-0.1-0.7-0.4-2.4-0.6-3c-0.3-1-0.8-1.8-1.2-2C176.5,9,175.4,9,175.4,9H167
				c-0.5,0-1.4,0.4-2.2,1.2c-0.5,0.5-1.1,1.4-1.6,2L144,36.8c0,0-0.2,0.4-0.2,0.7h22.8c0.3-0.1,0.6-0.4,1.2-1
				c0.5-0.6,1.1-1.2,1.6-1.9c0.6-0.7,1.1-1.3,1.5-1.9c0.4-0.6,0.9-1.3,0.9-1.5l0.9,6.3h9.6L178.7,14.5z M160.7,30.3v-0.5l9-12.1
				l1.9,12.6H160.7z"/>
			<path class="st1" d="M219.7,11.9c-0.4-0.8-1-1.5-1.8-2c-0.8-0.5-1.8-0.8-3.1-0.8h-24l-10.4,28.5h10.3l3.6-9.8l0.6-0.4l10.4,10.2
				h12.2l-10.6-10.8c1.4-0.1,3-0.3,4.6-0.6c1.6-0.3,3.1-0.8,4.5-1.5c1.3-0.7,2.5-1.6,3.4-2.8c0.9-1.2,1.5-2.7,1.5-4.9
				C220.9,13.9,220.1,12.7,219.7,11.9z M209.9,19.2c-0.3,0.4-0.6,0.7-1.2,0.7h-8.6l-4.7,4.8l3.1-8.4h10.8c0.4,0,0.7,0.1,0.8,0.3
				c0.1,0.2,0.3,0.5,0.3,1.1C210.4,18.3,210.2,18.8,209.9,19.2z"/>
		</g>
		<g>
			<path class="st1" d="M42.7,14.7L34,37.6H23.7c-2.9,0-5.7-0.3-8.4-0.8c-2.7-0.5-5.2-1.4-7.3-2.7c-2.2-1.3-3.9-3-5.2-5.1
				c-1.3-2.2-2-4.9-2-8.2c0-2.2,0.5-4.5,1.5-6.8c1-2.4,2.3-4.5,3.9-6.4C7.9,5.5,9.8,4,11.9,2.7c2.2-1.2,4.5-1.8,6.9-1.8h28.6
				c-1.3,1.7-2.7,3.4-4.1,4.9c-1.4,1.5-2.8,3-4.5,4.4h-18c-0.7,0-1.9,0.5-2.6,0.8c-0.7,0.4-2.4,1.6-3.6,3.4c-1,1.5-1.6,2.5-1.7,5.2
				c-0.1,2,0.4,3.9,1.7,5.6c1.8,2.4,4.7,2.9,6.3,2.9h4.8l1.9-4.5h-8.9v-0.1c0-0.1,0.3-0.6,0.9-1.3c0.5-0.8,1.2-1.6,1.9-2.6
				c0.7-0.9,1.5-1.9,2.3-2.8c0.8-0.9,1.5-1.7,2.2-2.2H42.7z"/>
			<path class="st1" d="M75.8,27.9c-1.1,1.9-2.4,3.5-4,4.9c-1.6,1.4-3.4,2.6-5.4,3.4c-2,0.9-4.1,1.3-6.2,1.3H54
				c-2,0-3.8-0.2-5.5-0.5c-1.7-0.3-3.1-0.9-4.4-1.6c-1.2-0.8-2.2-1.8-2.9-3.1c-0.7-1.3-1-3-1-5c0-0.4,0-0.9,0.1-1.3
				c0-0.5,0.1-0.9,0.2-1.5c0.3-1.9,0.9-3.8,1.9-5.7c1-1.8,2.3-3.5,3.9-5c1.5-1.5,3.2-2.6,5.1-3.5C53.2,9.5,55.1,9,57,9h8
				c2,0,3.9,0.2,5.5,0.6c1.6,0.4,3,1,4.1,1.8c1.1,0.8,2,1.8,2.6,3.1c0.6,1.3,0.9,2.8,0.9,4.5c0,0.5,0,1-0.1,1.5c0,0.5-0.1,1-0.2,1.6
				C77.6,24.1,76.9,26.1,75.8,27.9z M65.7,26.3c1.5-1.8,2.8-4.3,2.1-6.6c-0.8-2.7-2.6-3-3.4-3.2c-0.8-0.2-3.9-0.1-5.2-0.1
				c-1.9,0-4.5,1.2-6,2.8c-1.7,1.7-3.6,4.6-2.5,7.4c1.1,2.8,3.1,3.2,4,3.4c0.9,0.2,4.8,0,4.8,0C62.1,29.7,64.2,28.1,65.7,26.3z"/>
		</g>
	</g>
	<g>
		<path class="st0" d="M185.6,47.3h-1.5H183h-11.6h-0.1h-0.5h-0.8h-1.2h-0.1h-0.5h-0.8h-7.8h-2.6c-0.6,0-1.6,0-1.6,0h-1h-1.6h-1
			h-2.2h-0.5h-2.1h-0.5l-0.2,0.4l-0.2,0.5l-0.1-0.4l-0.1-0.5h-0.6h-2H143h-3h-0.5H139h-0.2h-1.5h-0.5h-0.5h-0.2h-11.7h-0.5H122h-0.5
			l-0.2,0.4l-3.5,9.5h-0.1h-4.4l3.3-9l0.3-0.9h-1h-1.6h-1h-2.2h-0.5h-2.1h-0.5l-0.2,0.4l-3.5,9.5h-0.1H100l3.3-9l0.3-0.9h-1h-1.6h-1
			h-2.2h-0.5h-2.1h-0.5l-0.2,0.4L92,55l-0.7-4.6c-0.1-0.6-0.2-1.2-0.3-1.5c-0.2-0.6-0.5-1.1-0.8-1.3c-0.4-0.3-1-0.3-1.1-0.3h-2.6
			h-1.3h-2.6c-0.5,0-1.1,0.3-1.5,0.8c-0.1,0.2-0.3,0.4-0.5,0.6c-0.1,0.1-0.2,0.2-0.3,0.3L78,52l1.4-3.8l0.3-0.9h-1h-1.6h-1h-2.2
			h-0.5h-2.1h-0.5l-0.2,0.4L69,52.5h-0.8h-0.3h-0.4l1.5-4.2l0.3-0.9h-1h-1.6h-1h-2.2h-0.4c0,0,0,0,0.1-0.1c0.6-0.7,1.3-1.5,1.9-2.3
			l0.8-1.1h-1.4h-1.2h-1.4H51.6H49c-1.2,0-2.4,0.3-3.5,0.9c-1,0.6-2,1.4-2.8,2.3c-0.8,0.9-1.5,2-1.9,3.1c-0.5,1.2-0.7,2.3-0.7,3.4
			v0.1c0,1.6,0.3,3,1,4.1c0.7,1.1,1.5,2,2.6,2.6c1.1,0.6,2.3,1.1,3.6,1.3c1.3,0.2,2.6,0.4,4,0.4h2.5h0.1h0.1h1.4h1h0.1h0.2h1.4h1
			h2.2h0.5h2.1h0.5l0.2-0.4l1.6-4.3h1.4l-1.4,3.9L65.5,62h1h1.6h1h1.7h0.4h0.4h0h1.7h0.4h0.4h0h8h0.1h2.2h0.3h0.1h0.1h2h0.6h1.7h0.2
			h0.7h0h1.6h0.2H93h0h8.4h0.2h1.1h1h0.3h0.2h1.1h1h8.4h0.2h1.1h1h0.3h0.2h1.1h1h6.4h2.6h0.7h1.7h0.9h0.1h1.6h1h2.2h0.5h2.1h0.5
			l0.2-0.4l0.2-0.4l0.1,0.3l0.1,0.5h0.6h2h0.6h3.5h0.5h2.1h0.5l0.2-0.4l0.8-2.3c0.5,0.6,1,1,1.6,1.4c0.9,0.5,1.8,0.9,2.9,1
			c1,0.2,2.1,0.3,3.2,0.3h2.6h1.1h0.3h0.2h0.8h1.3h0.3h0.2h0.8h6.4h2.6h0.7h2.6c0.3,0,0.7-0.2,1.1-0.6c0.3-0.3,0.6-0.6,1-1
			c0.4-0.4,0.6-0.8,0.9-1.2c0.3-0.4,0.5-0.7,0.6-0.9l0.8-1h-1.4h-1.2h-1.4h-3.7h-0.7h-1.3l0.1-0.2h2.3h0.3h2.3h0.3l0.2-0.2l3.3-3.4
			l1.1-1.1h-1.6h-1H179h-3.5h-0.3l0.1-0.3h4.7h2.6c0.3,0,0.7-0.2,1.1-0.6c0.3-0.3,0.6-0.6,1-1c0.4-0.4,0.6-0.8,0.9-1.2
			c0.3-0.4,0.5-0.7,0.6-1l0.5-1H185.6z M57.3,56.4h-4.8c0,0-0.1,0-0.1,0l-0.1,0l-0.1,0l0,0h0c-0.2,0-1.1-0.3-1.7-1
			c-0.5-0.6-0.8-1.4-0.7-2.4c0.2-2.5,2.2-3.4,2.3-3.4c0.1,0,0.3-0.1,0.4-0.1h5.6h0.3h1.4L57.3,56.4z M132.8,57.2h-0.4h-3.7H128h-1.3
			l0.1-0.2h2.3h0.3h2.3h0.3l0.2-0.2l1.4-1.5L132.8,57.2z M134.6,52.3h-0.8h-1.6h-3.5h-0.3l0.1-0.3h4.7h1.5L134.6,52.3z M166.4,52.3
			h-0.7h-3.4h-0.2h-2.3c0.1-0.1,0.2-0.1,0.2-0.1c0.1,0,0.2-0.1,0.3-0.1l0.1,0l0,0l0.1,0c0,0,0.1,0,0.1,0h3.9h0.2h1.9L166.4,52.3z"/>
		<g>
			<g>
				<path class="st1" d="M88,50.5c-0.1-0.3-0.2-1.1-0.3-1.4c-0.1-0.5-0.4-0.8-0.5-1C87,48,86.5,48,86.5,48h-3.9
					c-0.2,0-0.6,0.2-1,0.6c-0.2,0.2-0.5,0.7-0.8,0.9l-9,11.5c0,0-0.1,0.2-0.1,0.3h10.6c0.1-0.1,0.3-0.2,0.6-0.5
					c0.3-0.3,0.5-0.6,0.8-0.9c0.3-0.3,0.5-0.6,0.7-0.9c0.2-0.3,0.4-0.6,0.4-0.7l0.4,2.9h4.5L88,50.5z M79.6,57.9v-0.3l4.2-5.7
					l0.9,5.9H79.6z"/>
			</g>
			<g>
				<path class="st1" d="M61.1,48h4.8l-2.8,7.8l2.6-2.6h3.8l1.9-5.1h4.8l-4.8,13.3h-4.8l1.7-4.8h-5.4l-1.7,4.8h-4.8L61.1,48z"/>
			</g>
			<g>
				<path class="st1" d="M90.4,61.3L95.3,48h4.8l-3.6,9.9h8c0,0-0.1,0.1-0.3,0.4c-0.2,0.3-0.5,0.6-0.8,1c-0.3,0.4-0.7,0.8-1,1.1
					c-0.4,0.4-0.6,0.7-0.9,0.8H90.4z"/>
			</g>
			<g>
				<path class="st1" d="M103.8,61.3l4.9-13.3h4.8l-3.6,9.9h8c0,0-0.1,0.1-0.3,0.4c-0.2,0.3-0.5,0.6-0.8,1c-0.3,0.4-0.7,0.8-1,1.1
					c-0.4,0.4-0.6,0.7-0.9,0.8H103.8z"/>
			</g>
			<g>
				<path class="st1" d="M136.9,48h6.1l1.4,7.5l2.7-7.5h4.8l-4.8,13.3H141l-1.4-7.5l-2.7,7.5h-4.8L136.9,48z"/>
			</g>
			<g>
				<path class="st1" d="M49,44.5c-1.1,0-2.2,0.3-3.2,0.8c-1,0.6-1.9,1.3-2.6,2.1c-0.8,0.9-1.4,1.8-1.8,2.9
					c-0.4,1.1-0.7,2.1-0.7,3.1v0.1c0,1.5,0.3,2.8,0.9,3.8c0.6,1,1.4,1.8,2.4,2.4c1,0.6,2.1,1,3.4,1.2c1.2,0.2,2.5,0.3,3.8,0.3h2.5
					c0.5-0.3,1.5-1.3,2.1-2.1c0.6-0.7,1.2-1.5,1.6-2.2h-7.6c-0.1,0-0.1,0-0.2,0c0,0,0,0-0.1,0c-0.6,0-3.4-0.8-3.1-4.1
					c0.3-2.9,2.7-3.9,2.7-3.9s0.5-0.2,0.7-0.2h8.2c0.7-0.6,1.4-1.3,2-2c0.6-0.7,1.2-1.5,1.9-2.3H49z"/>
			</g>
			<g>
				<path class="st1" d="M122,48l-4.9,13.3h9h3.3c0.1,0,0.3-0.1,0.6-0.4c0.3-0.3,0.6-0.6,0.9-1c0.3-0.4,0.6-0.7,0.9-1.1
					c0.3-0.4,0.5-0.7,0.6-0.9c0,0,0,0,0,0h-6.3v0h-3l0.6-1.5h5.3l3.3-3.4h-6.1l-2.1,2.3l1.4-3.9h7.7c0.1,0,0.3-0.1,0.6-0.4
					c0.3-0.3,0.6-0.6,0.9-1c0.3-0.4,0.6-0.7,0.9-1.1c0.3-0.4,0.5-0.7,0.6-0.9H122z"/>
			</g>
			<g>
				<path class="st1" d="M168.7,48l-4.9,13.3h9h3.3c0.1,0,0.3-0.1,0.6-0.4c0.3-0.3,0.6-0.6,0.9-1c0.3-0.4,0.6-0.7,0.9-1.1
					c0.3-0.4,0.5-0.7,0.6-0.9c0,0,0,0,0,0h-6.3v0h-3l0.6-1.5h5.3L179,53h-6.1l-2.1,2.3l1.4-3.9h7.7c0.1,0,0.3-0.1,0.6-0.4
					c0.3-0.3,0.6-0.6,0.9-1c0.3-0.4,0.6-0.7,0.9-1.1c0.3-0.4,0.5-0.7,0.6-0.9H168.7z"/>
			</g>
			<g>
				<path class="st1" d="M164.4,51.4c0.6-0.5,1.1-1,1.6-1.6c0.5-0.6,1-1.2,1.5-1.8h-10.4c-0.9,0-1.7,0.2-2.5,0.7
					c-0.8,0.4-1.5,1-2.1,1.7c-0.6,0.7-1.1,1.5-1.4,2.3c-0.3,0.9-0.5,1.7-0.5,2.5c0,1.2,0.2,2.2,0.7,3c0.5,0.8,1.1,1.4,1.9,1.9
					c0.8,0.5,1.7,0.8,2.7,1c1,0.2,2,0.3,3,0.3h3.7l3.1-8.3h-6c-0.2,0.2-0.5,0.4-0.8,0.8c-0.3,0.3-0.6,0.7-0.8,1
					c-0.3,0.3-0.5,0.7-0.7,0.9c-0.2,0.3-0.3,0.4-0.3,0.5v0h2.8l-0.6,1.6h-1.5c0,0-0.2,0-0.3,0c0,0-2.3-0.5-2.4-2.8
					c-0.1-1.8,1-3,1.9-3.5c0,0,0.4-0.2,0.6-0.2c0.2,0,0,0,0,0c0.1,0,0.2,0,0.3,0H164.4z"/>
			</g>
		</g>
	</g>
</g>
</svg>
